<svg xmlns="http://www.w3.org/2000/svg" xmlns:xlink="http://www.w3.org/1999/xlink" viewBox="0 0 58.3 74.49"><defs><style>.cls-1{fill:url(#linear-gradient);}.cls-2{fill:url(#linear-gradient-2);}</style><linearGradient id="linear-gradient" x1="29.15" y1="73.07" x2="29.15" y2="16.11" gradientUnits="userSpaceOnUse"><stop offset="0" stop-color="#01398e"/><stop offset="1" stop-color="#1f55de"/></linearGradient><linearGradient id="linear-gradient-2" x1="29.39" y1="12.43" x2="29.39" y2="-0.03" gradientUnits="userSpaceOnUse"><stop offset="0" stop-color="#ffe590"/><stop offset="1" stop-color="#fff0bd"/></linearGradient></defs><g id="Layer_2" data-name="Layer 2"><g id="OBJECT"><path class="cls-1" d="M50.36,74.49H7.94A7.94,7.94,0,0,1,0,66.11L1.08,50.28,33.35,61.76a1.87,1.87,0,0,0,.65.12,1.94,1.94,0,0,0,.65-3.77L1.36,46.26,3,21.82a7.94,7.94,0,0,1,7.93-7.5H47.36a7.94,7.94,0,0,1,7.93,7.5l1.1,16.24-31-11a1.94,1.94,0,1,0-1.3,3.66L56.68,42.28l1.61,23.83A7.94,7.94,0,0,1,50.36,74.49Z"/><path class="cls-2" d="M29.39,0A12.63,12.63,0,0,0,16.77,12.62H22.6a6.8,6.8,0,1,1,13.59,0H42A12.63,12.63,0,0,0,29.39,0Z"/></g></g></svg>